/* XPM */
static char *_6caa4b379154471ee41ae026e28c9fdNa66avpHNmi5zTEZ[] = {
/* columns rows colors chars-per-pixel */
"32 32 85 1 ",
"  c None",
". c black",
"X c #010000",
"o c #020202",
"O c #060400",
"+ c #090703",
"@ c #090909",
"# c gray5",
"$ c gray6",
"% c #100A00",
"& c #110B00",
"* c #120B00",
"= c #1F1300",
"- c #161616",
"; c #1B1B1B",
": c #342000",
"> c #3A2400",
", c #3E2600",
"< c #3E2700",
"1 c #2F2F2F",
"2 c #3F3F3F",
"3 c #553500",
"4 c #463922",
"5 c #6D4400",
"6 c #6E4400",
"7 c #704500",
"8 c #7E4E00",
"9 c #77551E",
"0 c #434343",
"q c gray28",
"w c #5F5F5F",
"e c #676767",
"r c #686868",
"t c gray48",
"y c gray49",
"u c #885400",
"i c #8C5700",
"p c #A06400",
"a c #A26500",
"s c #A96900",
"d c #BD7500",
"f c #C37900",
"g c #C67B00",
"h c #857862",
"j c #D88600",
"k c #DC8900",
"l c #E68F00",
"z c #E89000",
"x c #E99100",
"c c #F19600",
"v c #F39700",
"b c #F79A00",
"n c #F89A00",
"m c #F99B00",
"M c #F99D05",
"N c #F9A00F",
"B c #F2A11B",
"V c #F9A61E",
"C c #FAB139",
"Z c #FABB53",
"A c #FBC56C",
"S c #838383",
"D c gray53",
"F c #9F9F9F",
"G c #B2B2B2",
"H c gray71",
"J c gray73",
"K c #FCD087",
"L c #FCDDAA",
"P c #CECECE",
"I c #D2D2D2",
"U c #FDE8C5",
"Y c #E1E1E1",
"T c #E2E2E2",
"R c gray91",
"E c #EAEAEA",
"W c #EFEFEF",
"Q c #FEF7EA",
"! c #F1F1F1",
"~ c gray96",
"^ c #F6F6F6",
"/ c #FEFBF6",
"( c gray99",
") c #FEFEFE",
"_ c white",
/* pixels */
"            ........            ",
"         ..............         ",
"       ..................       ",
"      ....................      ",
"     ......................     ",
"    ........................    ",
"   ..........................   ",
"  ............................  ",
"  ......2WWWWG...7zzzz8.......  ",
" ........J____q.*zmmmz&........ ",
" ........1____I.immmm7......... ",
" .........F____hbmmmjO......... ",
"..........;~___Znmmm3...........",
"...........S__Ummmmf............",
"...........#R_Cmmmb>............",
"............rLnnmms.............",
"............+BmmmM4.............",
"............6mmmmAH.............",
"...........&lmmmNQ_0............",
"...........ummmmK__P............",
" .........=cmmmV/___w.......... ",
" .........pnmmm9~___T@......... ",
" ........:nmmmg.D____t......... ",
"  .......dmmmn,.$R___!-.......  ",
"  ......,kkkkp...eTTTTy.......  ",
"   ..........................   ",
"    ........................    ",
"     ......................     ",
"      ....................      ",
"       ..................       ",
"         ..............         ",
"            ........            "
};
