/* XPM */
static char *_4684637c6634516fe9aba63bf6617f0[] = {
/* columns rows colors chars-per-pixel */
"32 32 120 2 ",
"   c black",
".  c #000100",
"X  c #010101",
"o  c #020100",
"O  c gray1",
"+  c #010400",
"@  c #070503",
"#  c #080600",
"$  c #0F0900",
"%  c #000009",
"&  c gray6",
"*  c #110A00",
"=  c #101010",
"-  c #231500",
";  c #251700",
":  c #3A2300",
">  c #3B2300",
",  c #342613",
"<  c gray14",
"1  c gray15",
"2  c #3A3A3A",
"3  c #3E3E3E",
"4  c #402700",
"5  c #5C2F00",
"6  c #593300",
"7  c #5F3600",
"8  c #774300",
"9  c #7A4600",
"0  c #424241",
"q  c #5B5B5B",
"w  c #5D5D5D",
"e  c #7C7C7C",
"r  c #844C00",
"t  c #844F00",
"y  c #A55F00",
"u  c #AC5B00",
"i  c #A56000",
"p  c #85622D",
"a  c #E27500",
"s  c #D88000",
"d  c #DB8500",
"f  c #DD8500",
"g  c #DE8500",
"h  c #DD8800",
"j  c #DE9800",
"k  c #E08400",
"l  c #E08700",
"z  c #FF8300",
"x  c #FF8500",
"c  c #FF8A00",
"v  c #FF8E00",
"b  c #ED9000",
"n  c #E09E00",
"m  c #ED9A00",
"M  c #F29500",
"N  c #FF9000",
"B  c #FF9400",
"V  c #FF9600",
"C  c #FF9700",
"Z  c #F89800",
"A  c #FF9800",
"S  c #FF9900",
"D  c #FF9A00",
"F  c #FF9B00",
"G  c #FF9D00",
"H  c #FF9E00",
"J  c #FF9F00",
"K  c #EE9811",
"L  c #EBA500",
"P  c #FFA000",
"I  c #FFA200",
"U  c #FFA400",
"Y  c #FDA600",
"T  c #FFA600",
"R  c #FFA700",
"E  c #FFA800",
"W  c #FFAA00",
"Q  c #FFAB00",
"!  c #FFAD00",
"~  c #FFAF00",
"^  c #FFB200",
"/  c #FFB300",
"(  c #FFB400",
")  c #FFB700",
"_  c #FFB900",
"`  c #FFBA00",
"'  c #FFBB00",
"]  c #FFBC00",
"[  c #FFBD00",
"{  c #FFB50A",
"}  c #FFBA2A",
"|  c #FFAF38",
" . c #FFC800",
".. c #888279",
"X. c #FFDB71",
"o. c #5A6E8D",
"O. c #757C87",
"+. c gray51",
"@. c #848484",
"#. c #A2A2A2",
"$. c gray66",
"%. c #FFCE80",
"&. c #FFE78B",
"*. c #AEC2DC",
"=. c #DADADA",
"-. c gray86",
";. c #DCDDDD",
":. c #DDDDDD",
">. c gray87",
",. c #FFEFD6",
"<. c #FDF6D8",
"1. c gray88",
"2. c #E9E9E9",
"3. c #EFEFEF",
"4. c #E1F5FF",
"5. c #F1F4F7",
"6. c gray97",
"7. c #FFFEF6",
"8. c gray100",
"9. c None",
/* pixels */
"9.9.9.9.9.9.9.9.9.9.9.9.                9.9.9.9.9.9.9.9.9.9.9.9.",
"9.9.9.9.9.9.9.9.9.                            9.9.9.9.9.9.9.9.9.",
"9.9.9.9.9.9.9.                                    9.9.9.9.9.9.9.",
"9.9.9.9.9.9.                                        9.9.9.9.9.9.",
"9.9.9.9.9.                                            9.9.9.9.9.",
"9.9.9.9.                                                9.9.9.9.",
"9.9.9.                                                    9.9.9.",
"9.9.            =                           *               9.9.",
"9.9.            2 3.1.1.1.$.      7 n l k L t               9.9.",
"9.                -.8.8.8.8.0   # Z ' E ) ^ ;                 9.",
"9.                < 8.8.8.8.-.  8 [ C C ' 9                   9.",
"9.                  #.8.8.8.8...a U C ! b                     9.",
"                    = 8.8.8.8.X.v C A ' 6                       ",
"                      +.8.8.,.v C C ^ s                         ",
"                        5.8.| x A H ^ >                         ",
"                        o.<.c C H E u                           ",
"                        % K P A A { ,                           ",
"                        5 U H H z &.*.                          ",
"                        M ! A N C 7.8.3                         ",
"                      r [ C A x %.8.8.=.                        ",
"9.                  * P U A v } 8.8.8.8.q                     9.",
"9.                  y [ C A H p 4.8.8.8.3.                    9.",
"9.                ; ! P A ^ d   O.8.8.8.8.e                   9.",
"9.9.              h  .U ! [ 4   @ 6.8.8.8.8.<               9.9.",
"9.9.            > m h h j i       w -.1.-.2.@.              9.9.",
"9.9.9.          * O                         =             9.9.9.",
"9.9.9.9.                                                9.9.9.9.",
"9.9.9.9.9.                                            9.9.9.9.9.",
"9.9.9.9.9.9.                                        9.9.9.9.9.9.",
"9.9.9.9.9.9.9.                                    9.9.9.9.9.9.9.",
"9.9.9.9.9.9.9.9.9.                            9.9.9.9.9.9.9.9.9.",
"9.9.9.9.9.9.9.9.9.9.9.9.                9.9.9.9.9.9.9.9.9.9.9.9."
};
