/* XPM */
static char *_9016341124045d9c6bf3d8fb43fab15Vgk4shSgWnNTt9Yq[] = {
/* columns rows colors chars-per-pixel */
"64 64 163 2 ",
"   c None",
".  c black",
"X  c #010000",
"o  c #010100",
"O  c #010101",
"+  c #020100",
"@  c #030200",
"#  c gray1",
"$  c #060300",
"%  c #040404",
"&  c #060606",
"*  c #070707",
"=  c #090500",
"-  c #0C0700",
";  c gray3",
":  c #0B0B0B",
">  c #0E0E0E",
",  c gray6",
"<  c #150D00",
"1  c #170E00",
"2  c #1A1000",
"3  c #1D1200",
"4  c gray8",
"5  c gray11",
"6  c gray12",
"7  c #231500",
"8  c #261800",
"9  c #291A00",
"0  c #2E1C00",
"q  c #301E00",
"w  c #311E00",
"e  c #382300",
"r  c #3D2600",
"t  c #252525",
"y  c gray15",
"u  c gray16",
"i  c #2F2F2F",
"p  c #313131",
"a  c #343434",
"s  c #3C3C3C",
"d  c #412800",
"f  c #462C00",
"g  c #492D00",
"h  c #4A2E00",
"j  c #4D3000",
"k  c #523300",
"l  c #583600",
"z  c #5C3900",
"x  c #643E00",
"c  c #653F00",
"v  c #6D4400",
"b  c #764900",
"n  c gray25",
"m  c #484848",
"M  c gray29",
"N  c #4C4C4C",
"B  c #4E4E4E",
"V  c gray34",
"C  c gray36",
"Z  c #646464",
"A  c #6A6A6A",
"S  c #777777",
"D  c gray49",
"F  c gray50",
"G  c #804F00",
"H  c #845200",
"J  c #915A00",
"K  c #955D00",
"L  c #9B6000",
"P  c #9F6300",
"I  c #966617",
"U  c #A16400",
"Y  c #A76800",
"T  c #AC6B00",
"R  c #B06D00",
"E  c #B57100",
"W  c #B87200",
"Q  c #B97300",
"!  c #BF7700",
"~  c #C17800",
"^  c #C57B00",
"/  c #C97D00",
"(  c #827C72",
")  c #CD8000",
"_  c #CF8100",
"`  c #D08200",
"'  c #D68500",
"]  c #D98700",
"[  c #DC8900",
"{  c #E18C00",
"}  c #E28D00",
"|  c #E78F00",
" . c #EB9200",
".. c #ED9300",
"X. c #EF9400",
"o. c #F09500",
"O. c #F49800",
"+. c #F59800",
"@. c #F69900",
"#. c #F79900",
"$. c #F79A00",
"%. c #F89A00",
"&. c #F99B00",
"*. c #F99B01",
"=. c #F99C02",
"-. c #F99D06",
";. c #F99F0A",
":. c #F9A314",
">. c #F9A519",
",. c #F9A925",
"<. c #FAAC2D",
"1. c #FAB23C",
"2. c #FAB645",
"3. c #FBBD57",
"4. c #E9BA6D",
"5. c #FBC161",
"6. c #FBC872",
"7. c gray52",
"8. c #898989",
"9. c #969187",
"0. c #929292",
"q. c gray63",
"w. c #A5A5A5",
"e. c gray68",
"r. c #AEAEAE",
"t. c #B2B2B2",
"y. c #B4B4B4",
"u. c gray73",
"i. c #BCBCBC",
"p. c #FCD492",
"a. c #FCD89C",
"s. c #FDDFAD",
"d. c #FDE3B7",
"f. c #C0C0C0",
"g. c gray77",
"h. c gray78",
"j. c #C8C8C8",
"k. c gray80",
"l. c #D2D2D2",
"z. c #D7D7D7",
"x. c #DDDDDD",
"c. c gray87",
"v. c #DFDFDF",
"b. c #FDE9C8",
"n. c #FDECD0",
"m. c #FEF2DD",
"M. c gray88",
"N. c gray90",
"B. c #E9E9E9",
"V. c #FEF4E4",
"C. c gray94",
"Z. c #F3F3F3",
"A. c gray96",
"S. c gray97",
"D. c #FEFAF3",
"F. c #F9F9F9",
"G. c gray98",
"H. c #FBFBFB",
"J. c #FEFDF9",
"K. c #FDFDFD",
"L. c #FEFDFC",
"P. c #FEFEFE",
"I. c white",
/* pixels */
"                                                    . . . . . . . . . . . .                                                     ",
"                                            . . . . . . . . . . . . . . . . . . . .                                             ",
"                                        . . . . . . . . . . . . . . . . . . . . . . . .                                         ",
"                                  . . . . . . . . . . . . . . . . . . . . . . . . . . . . . .                                   ",
"                                . . . . . . . . . . . . . . . . . . . . . . . . . . . . . . . .                                 ",
"                            . . . . . . . . . . . . . . . . . . . . . . . . . . . . . . . . . . . .                             ",
"                          . . . . . . . . . . . . . . . . . . . . . . . . . . . . . . . . . . . . . .                           ",
"                      . . . . . . . . . . . . . . . . . . . . . . . . . . . . . . . . . . . . . . . . . .                       ",
"                    . . . . . . . . . . . . . . . . . . . . . . . . . . . . . . . . . . . . . . . . . . . .                     ",
"                  . . . . . . . . . . . . . . . . . . . . . . . . . . . . . . . . . . . . . . . . . . . . . .                   ",
"                . . . . . . . . . . . . . . . . . . . . . . . . . . . . . . . . . . . . . . . . . . . . . . . .                 ",
"              . . . . . . . . . . . . . . . . . . . . . . . . . . . . . . . . . . . . . . . . . . . . . . . . . .               ",
"              . . . . . . . . . . . . . . . . . . . . . . . . . . . . . . . . . . . . . . . . . . . . . . . . . .               ",
"            . . . . . . . . . . . . . . . . . . . . . . . . . . . . . . . . . . . . . . . . . . . . . . . . . . . .             ",
"          . . . . . . . . . . . . . . . . . . . . . . . . . . . . . . . . . . . . . . . . . . . . . . . . . . . . . .           ",
"          . . . . . . . . . . . . . . . . . . . . . . . . . . . . . . . . . . . . . . . . . . . . . . . . . . . . . .           ",
"        . . . . . . . . . . . . . y.M.M.M.M.M.M.M.M.v.p . . . . . . . J ] ] ] ] ] ] ] ] ] j . . . . . . . . . . . . . .         ",
"      . . . . . . . . . . . . . . M K.K.K.K.K.K.K.K.K.u.. . . . . . w @.&.&.&.&.&.&.&.&._ . . . . . . . . . . . . . . .         ",
"      . . . . . . . . . . . . . . . i.K.K.K.K.K.K.K.K.K.M . . . . . W &.&.&.&.&.&.&.&.&.f . . . . . . . . . . . . . . . .       ",
"      . . . . . . . . . . . . . . . p K.K.K.K.K.K.K.K.K.l.. . . . g &.&.&.&.&.&.&.&.&.E . . . . . . . . . . . . . . . . .       ",
"    . . . . . . . . . . . . . . . . . q.K.K.K.K.K.K.K.K.K.Z . . . ` &.&.&.&.&.&.&.&.@.0 . . . . . . . . . . . . . . . . . .     ",
"    . . . . . . . . . . . . . . . . . 5 S.K.K.K.K.K.K.K.K.N.: . c =.&.&.&.&.&.&.&.&.L . . . . . . . . . . . . . . . . . . .     ",
"  . . . . . . . . . . . . . . . . . . . 7.K.K.K.K.K.K.K.K.K.F - { &.&.&.&.&.&.&.&.X.2 . . . . . . . . . . . . . . . . . . . .   ",
"  . . . . . . . . . . . . . . . . . . . 4 B.K.K.K.K.K.K.K.K.S.I &.&.&.&.&.&.&.&.&.G . . . . . . . . . . . . . . . . . . . . .   ",
"  . . . . . . . . . . . . . . . . . . . . A K.K.K.K.K.K.K.K.V.;.&.&.&.&.&.&.&.&.[ - . . . . . . . . . . . . . . . . . . . . .   ",
"  . . . . . . . . . . . . . . . . . . . . & z.K.K.K.K.K.K.K.5.=.&.&.&.&.&.&.&.&.v . . . . . . . . . . . . . . . . . . . . . .   ",
". . . . . . . . . . . . . . . . . . . . . . B K.K.K.K.K.K.n.=.&.&.&.&.&.&.&.&.` @ . . . . . . . . . . . . . . . . . . . . . .   ",
". . . . . . . . . . . . . . . . . . . . . . . f.K.K.K.K.K.2.&.&.&.&.&.&.&.&.&.g . . . . . . . . . . . . . . . . . . . . . . . . ",
". . . . . . . . . . . . . . . . . . . . . . . a K.K.K.K.d.=.&.&.&.&.&.&.&.&.W . . . . . . . . . . . . . . . . . . . . . . . . . ",
". . . . . . . . . . . . . . . . . . . . . . . . w.K.K.K.<.=.&.&.&.&.&.&.&.&.w . . . . . . . . . . . . . . . . . . . . . . . . . ",
". . . . . . . . . . . . . . . . . . . . . . . . t S.K.a.=.&.&.&.&.&.&.&.&.U . . . . . . . . . . . . . . . . . . . . . . . . . . ",
". . . . . . . . . . . . . . . . . . . . . . . . . 8.D.>.&.&.&.&.&.&.&.&.X.3 . . . . . . . . . . . . . . . . . . . . . . . . . . ",
". . . . . . . . . . . . . . . . . . . . . . . . . , 4.&.&.&.&.&.&.&.&.&.H . . . . . . . . . . . . . . . . . . . . . . . . . . . ",
". . . . . . . . . . . . . . . . . . . . . . . . . 1 ..&.&.&.&.&.&.&.&.:.9.. . . . . . . . . . . . . . . . . . . . . . . . . . . ",
". . . . . . . . . . . . . . . . . . . . . . . . . K &.&.&.&.&.&.&.&.&.p.H.u . . . . . . . . . . . . . . . . . . . . . . . . . . ",
". . . . . . . . . . . . . . . . . . . . . . . . 9 @.&.&.&.&.&.&.&.&.,.J.K.t.. . . . . . . . . . . . . . . . . . . . . . . . . . ",
". . . . . . . . . . . . . . . . . . . . . . . . T &.&.&.&.&.&.&.=.=.s.K.K.K.n . . . . . . . . . . . . . . . . . . . . . . . . . ",
". . . . . . . . . . . . . . . . . . . . . . . d &.&.&.&.&.&.&.&.=.1.K.K.K.K.k.. . . . . . . . . . . . . . . . . . . . . . . .   ",
"  . . . . . . . . . . . . . . . . . . . . . . / &.&.&.&.&.&.&.&.&.b.K.K.K.K.K.C . . . . . . . . . . . . . . . . . . . . . . .   ",
"  . . . . . . . . . . . . . . . . . . . . . z &.&.&.&.&.&.&.&.&.3.K.K.K.K.K.K.M.: . . . . . . . . . . . . . . . . . . . . . .   ",
"  . . . . . . . . . . . . . . . . . . . . - [ &.&.&.&.&.&.&.&.-.m.K.K.K.K.K.K.K.S . . . . . . . . . . . . . . . . . . . . . .   ",
"  . . . . . . . . . . . . . . . . . . . . b &.&.&.&.&.&.&.&.&.6.K.K.K.K.K.K.K.K.Z.4 . . . . . . . . . . . . . . . . . . . .     ",
"    . . . . . . . . . . . . . . . . . . 1  .&.&.&.&.&.&.&.&.| ( K.K.K.K.K.K.K.K.K.0.. . . . . . . . . . . . . . . . . . . .     ",
"    . . . . . . . . . . . . . . . . . . J &.&.&.&.&.&.&.&.&.v & v.K.K.K.K.K.K.K.K.H.y . . . . . . . . . . . . . . . . . . .     ",
"      . . . . . . . . . . . . . . . . 8 o.&.&.&.&.&.&.&.&.] @ . V K.K.K.K.K.K.K.K.K.t.. . . . . . . . . . . . . . . . . .       ",
"      . . . . . . . . . . . . . . . . T &.&.&.&.&.&.&.&.&.k . . . j.K.K.K.K.K.K.K.K.K.s . . . . . . . . . . . . . . . . .       ",
"      . . . . . . . . . . . . . . . r &.&.&.&.&.&.&.&.&.~ . . . . s K.K.K.K.K.K.K.K.K.j.. . . . . . . . . . . . . . . .         ",
"        . . . . . . . . . . . . . . ^ &.&.&.&.&.&.&.&.&.e . . . . . r.K.K.K.K.K.K.K.K.K.V . . . . . . . . . . . . . . .         ",
"          . . . . . . . . . . . . l &.&.&.&.&.&.&.&.&.Y . . . . . . y H.K.K.K.K.K.K.K.K.v.& . . . . . . . . . . . . .           ",
"          . . . . . . . . . . . . U ! ! ! ! ! ! ! ! ! 7 . . . . . . . F g.g.g.g.g.g.g.g.f.B . . . . . . . . . . . . .           ",
"            . . . . . . . . . . . . . . . . . . . . . . . . . . . . . . . . . . . . . . . . . . . . . . . . . . . .             ",
"              . . . . . . . . . . . . . . . . . . . . . . . . . . . . . . . . . . . . . . . . . . . . . . . . . .               ",
"              . . . . . . . . . . . . . . . . . . . . . . . . . . . . . . . . . . . . . . . . . . . . . . . . .                 ",
"                . . . . . . . . . . . . . . . . . . . . . . . . . . . . . . . . . . . . . . . . . . . . . . . .                 ",
"                  . . . . . . . . . . . . . . . . . . . . . . . . . . . . . . . . . . . . . . . . . . . . . .                   ",
"                    . . . . . . . . . . . . . . . . . . . . . . . . . . . . . . . . . . . . . . . . . . . .                     ",
"                      . . . . . . . . . . . . . . . . . . . . . . . . . . . . . . . . . . . . . . . . .                         ",
"                          . . . . . . . . . . . . . . . . . . . . . . . . . . . . . . . . . . . . . .                           ",
"                            . . . . . . . . . . . . . . . . . . . . . . . . . . . . . . . . . . . .                             ",
"                                . . . . . . . . . . . . . . . . . . . . . . . . . . . . . . . .                                 ",
"                                    . . . . . . . . . . . . . . . . . . . . . . . . . . . .                                     ",
"                                        . . . . . . . . . . . . . . . . . . . . . . . .                                         ",
"                                            . . . . . . . . . . . . . . . . . . . .                                             ",
"                                                    . . . . . . . . . . .                                                       "
};
