/* XPM */
static char *_ec50e427e1c4a5099afc7bf90e8597bgSv3NMQNWdETjRr1[] = {
/* columns rows colors chars-per-pixel */
"16 16 48 1 ",
"  c None",
". c black",
"X c gray1",
"o c #040404",
"O c #0B0B0B",
"+ c #150D00",
"@ c #111111",
"# c #191919",
"$ c #1E1E1E",
"% c #221500",
"& c #261700",
"* c #3C2500",
"= c #3F3B35",
"- c #412800",
"; c #462C00",
": c #5A3800",
"> c #5F3B00",
", c #6E4400",
"< c #774A00",
"1 c #515151",
"2 c #656565",
"3 c gray44",
"4 c gray48",
"5 c #905900",
"6 c #986107",
"7 c #AB6A00",
"8 c #DC8900",
"9 c #D88C0F",
"0 c #EB9200",
"q c #EC9300",
"w c #F19600",
"e c #F49800",
"r c #F89A00",
"t c #F99B00",
"y c #F9A00E",
"u c #F9A61C",
"i c #96938D",
"p c #A0A0A0",
"a c #FCCF86",
"s c #D3CBBE",
"d c #FCD9A0",
"f c gray77",
"g c #D8D8D8",
"h c #E6E6E6",
"j c #E7E7E7",
"k c gray97",
"l c #FCFCFA",
"z c white",
/* pixels */
"     ......     ",
"   ..........   ",
"  ............  ",
" .............. ",
" ...4kh@:wq%... ",
"....Ohzi8t5.....",
".....2zatq+.....",
"......syt<......",
"......6tu=......",
".....&etdf......",
".....7t9lz1.....",
" ...*tt-pzgo... ",
" ...;,>.#33$... ",
"  ............  ",
"   ..........   ",
"     ......     "
};
