/* XPM */
static char *_6a7effc65ed4bd6fd75f0b4463a1464[] = {
/* columns rows colors chars-per-pixel */
"16 16 56 1 ",
"  c black",
". c #060000",
"X c #070707",
"o c #0E0800",
"O c #0D0D00",
"+ c #00000C",
"@ c #080A0C",
"# c #100900",
"$ c #1A0F00",
"% c #131313",
"& c #161616",
"* c #181818",
"= c #261203",
"- c #281800",
"; c #341500",
": c #252525",
"> c #282E38",
", c #553300",
"< c #5C3700",
"1 c #693100",
"2 c #633800",
"3 c #796100",
"4 c gray30",
"5 c #5E5F61",
"6 c #747474",
"7 c #894A00",
"8 c #B46600",
"9 c #B66B00",
"0 c #C36200",
"q c #FA9700",
"w c #F29B00",
"e c #FE9B00",
"r c #FF9D00",
"t c #FF9E00",
"y c #EE9314",
"u c #E9AA00",
"i c #FFA000",
"p c #FFAF00",
"a c #FFBB00",
"s c #FFBD2A",
"d c #FFC000",
"f c #FFD400",
"g c #FFDB00",
"h c #FFC222",
"j c #798BA9",
"k c #848484",
"l c #8F96A4",
"z c #BEBBB6",
"x c #FFECA7",
"c c #D8D8D8",
"v c #FFFFD2",
"b c #C6DAF6",
"n c gray97",
"m c #F7FFFF",
"M c gray100",
"N c None",
/* pixels */
"NNNNN      NNNNN",
"NNN          NNN",
"NN            NN",
"N   &X   .O#   N",
"N   6nc+;uw-   N",
"    %MMl0g9     ",
"     5Mxieo     ",
"      zht1      ",
"      7ps>      ",
"     $qtvb      ",
"     8aymM4     ",
"N   <fd=jMM*   N",
"N   ,32 @6k:   N",
"NN            NN",
"NNN          NNN",
"NNNNN      NNNNN"
};
