/* XPM */
static char *eb935155ee0e4472bd4b793b63c52700[] = {
/* columns rows colors chars-per-pixel */
"64 64 201 2 ",
"   c black",
".  c #010000",
"X  c #010100",
"o  c #010101",
"O  c #020100",
"+  c gray1",
"@  c #050500",
"#  c #070502",
"$  c #060606",
"%  c #080500",
"&  c #0B0600",
"*  c gray5",
"=  c #120B00",
"-  c #140C00",
";  c #150C00",
":  c #1B1000",
">  c #1D1100",
",  c #101010",
"<  c gray7",
"1  c gray9",
"2  c #181818",
"3  c #201300",
"4  c #261700",
"5  c #271700",
"6  c #2B1900",
"7  c #321D00",
"8  c #351F00",
"9  c #392100",
"0  c #000825",
"q  c #202020",
"w  c #232424",
"e  c gray14",
"r  c #272727",
"t  c #2A2A2A",
"y  c #2F2F2F",
"u  c #393939",
"i  c #3C3C3C",
"p  c #412600",
"a  c #452800",
"s  c #4E2F00",
"d  c #523000",
"f  c #563200",
"g  c #573400",
"h  c #603700",
"j  c #643A00",
"k  c #633C00",
"l  c #6D3C00",
"z  c #774400",
"x  c #7C4600",
"c  c #414141",
"v  c gray27",
"b  c #4B4A4A",
"n  c #565656",
"m  c #585858",
"M  c #5B5B5B",
"N  c gray37",
"B  c #606060",
"V  c #646464",
"C  c #777777",
"Z  c #7B7B7B",
"A  c #833F00",
"S  c #864C00",
"D  c #8B4F00",
"F  c #985700",
"G  c #A66000",
"H  c #AB6200",
"J  c #A86400",
"K  c #B46800",
"L  c #B76A00",
"P  c #BC6D00",
"I  c #906729",
"U  c #C47200",
"Y  c #C57300",
"T  c #C87500",
"R  c #C97700",
"E  c #C97900",
"W  c #CE7A00",
"Q  c #CE7B00",
"!  c #C97C00",
"~  c #DD7300",
"^  c #D07A00",
"/  c #D37C00",
"(  c #D67F00",
")  c #DC7C00",
"_  c #C98600",
"`  c #CC8F00",
"'  c #DD8300",
"]  c #CE9200",
"[  c #DD9600",
"{  c #E08600",
"}  c #E68D00",
"|  c #EB8E00",
" . c #FF8100",
".. c #FF8300",
"X. c #FF8400",
"o. c #FF8500",
"O. c #FF8600",
"+. c #FF8700",
"@. c #FF8800",
"#. c #FF8900",
"$. c DarkOrange",
"%. c #FF8E00",
"&. c #FF8F00",
"*. c #F19300",
"=. c #F39500",
"-. c #FF9000",
";. c #FF9200",
":. c #FF9500",
">. c #FF9600",
",. c #FF9700",
"<. c #FF9800",
"1. c #FF9900",
"2. c #FF9A00",
"3. c #FF9B00",
"4. c #FB9D00",
"5. c #FF9C00",
"6. c #FF9D00",
"7. c #FF9E00",
"8. c #FF9F00",
"9. c #FF9E10",
"0. c #FFA000",
"q. c #FFA200",
"w. c #FFA300",
"e. c #FFA400",
"r. c orange",
"t. c #FFA600",
"y. c #FFA800",
"u. c #FFA900",
"i. c #FFAB00",
"p. c #FFAC00",
"a. c #FFAD00",
"s. c #FFAE00",
"d. c #FFAF00",
"f. c #FFB000",
"g. c #FFB100",
"h. c #FFB200",
"j. c #FFB300",
"k. c #FFB400",
"l. c #FFB500",
"z. c #FFB600",
"x. c #FFB700",
"c. c #FFB800",
"v. c #FFB900",
"b. c #FFBA00",
"n. c #FFBB00",
"m. c #FFBC00",
"M. c #FFA11C",
"N. c #FFA925",
"B. c #FFB622",
"V. c #FFAF33",
"C. c #FFB53F",
"Z. c #FFC200",
"A. c #FFC800",
"S. c #FFCB00",
"D. c #FFC223",
"F. c #FFBC4F",
"G. c #DBB379",
"H. c #FFC86F",
"J. c #FFDE78",
"K. c #707885",
"L. c #818181",
"P. c #878580",
"I. c #8A8782",
"U. c #868E9A",
"Y. c #9D9D9D",
"T. c #A2A2A2",
"R. c #A7A7A7",
"E. c #A9A9A9",
"W. c gray69",
"Q. c #BBBBBB",
"!. c #FFDB94",
"~. c #FFDCA4",
"^. c #FFE1B5",
"/. c #C0C0C0",
"(. c #C5C5C5",
"). c #C8C8C8",
"_. c gray79",
"`. c #CACACA",
"'. c gray80",
"]. c #CDCDCD",
"[. c #CECECE",
"{. c gray82",
"}. c gray84",
"|. c gray85",
" X c #DADADA",
".X c #DDDDDD",
"XX c #FFE7C1",
"oX c #FFEDD1",
"OX c #FFF1DB",
"+X c gray88",
"@X c #E3E3E4",
"#X c #EEEEEE",
"$X c #FFF5E7",
"%X c #E0F4FF",
"&X c #F1F1F1",
"*X c #F3F3F3",
"=X c #FFFBFC",
"-X c #FDFDFD",
";X c #FFFFFD",
":X c gray100",
">X c None",
/* pixels */
">X>X>X>X>X>X>X>X>X>X>X>X>X>X>X>X>X>X>X>X>X>X>X>X>X>X>X                    >X>X>X>X>X>X>X>X>X>X>X>X>X>X>X>X>X>X>X>X>X>X>X>X>X>X>X",
">X>X>X>X>X>X>X>X>X>X>X>X>X>X>X>X>X>X>X>X>X>X                                        >X>X>X>X>X>X>X>X>X>X>X>X>X>X>X>X>X>X>X>X>X>X",
">X>X>X>X>X>X>X>X>X>X>X>X>X>X>X>X>X>X>X>X                                                >X>X>X>X>X>X>X>X>X>X>X>X>X>X>X>X>X>X>X>X",
">X>X>X>X>X>X>X>X>X>X>X>X>X>X>X>X>X>X                                                        >X>X>X>X>X>X>X>X>X>X>X>X>X>X>X>X>X>X",
">X>X>X>X>X>X>X>X>X>X>X>X>X>X>X>X                                                                >X>X>X>X>X>X>X>X>X>X>X>X>X>X>X>X",
">X>X>X>X>X>X>X>X>X>X>X>X>X>X                                                                        >X>X>X>X>X>X>X>X>X>X>X>X>X>X",
">X>X>X>X>X>X>X>X>X>X>X>X>X                                                                            >X>X>X>X>X>X>X>X>X>X>X>X>X",
">X>X>X>X>X>X>X>X>X>X>X                                                                                    >X>X>X>X>X>X>X>X>X>X>X",
">X>X>X>X>X>X>X>X>X>X                                                                                        >X>X>X>X>X>X>X>X>X>X",
">X>X>X>X>X>X>X>X>X                                                                                            >X>X>X>X>X>X>X>X>X",
">X>X>X>X>X>X>X>X                                                                                                >X>X>X>X>X>X>X>X",
">X>X>X>X>X>X>X                                                                                                    >X>X>X>X>X>X>X",
">X>X>X>X>X>X>X                                                                                                    >X>X>X>X>X>X>X",
">X>X>X>X>X>X                                                                                                        >X>X>X>X>X>X",
">X>X>X>X>X                                                                                                            >X>X>X>X>X",
">X>X>X>X>X                        +                                                       &                           >X>X>X>X>X",
">X>X>X>X                          E.{.[.[.[.[.[.[.[.[.r               x ] Q Q Q Q Q W W [ g                             >X>X>X>X",
">X>X>X>X                          N :X:X:X:X:X:X:X:X:X(.            : p.v.p.p.p.p.p.p.Z.e.-                               >X>X>X",
">X>X>X                              /.:X:X:X:X:X:X:X:X:Xv           K v.1.1.1.1.1.1.1.v.d                                 >X>X>X",
">X>X>X                              e :X:X:X:X:X:X:X:X:X@X        7 h.7.1.1.1.1.1.1.l./                                   >X>X>X",
">X>X                                  T.:X:X:X:X:X:X:X:X:XV       ^ l.:.1.1.1.1.1.7.h.8                                     >X>X",
">X>X                                  , :X:X:X:X:X:X:X:X:X&X#   s v.1.1.1.1.1.1.:.v.L                                       >X>X",
">X                                      L.:X:X:X:X:X:X:X:X:XK.  } p.1.1.1.1.1.1.q.y.>                                         >X",
">X                                        &X:X:X:X:X:X:X:X:X%XI 7.1.1.1.1.1.1.:.m.F                                           >X",
">X                                        B :X:X:X:X:X:X:X:X:XB.;.:.1.1.1.1.1.y.4.&                                           >X",
">X                                          .X:X:X:X:X:X:X:XH.O.1.1.1.1.1.1.1.m.z                                             >X",
"                                            c :X:X:X:X:X:X$X;.;.1.1.1.1.1.1.p.|                                                 ",
"                                              (.:X:X:X:X:XF...1.1.1.1.1.1.1.v.f                                                 ",
"                                              r :X:X:X:XoX#.:.1.1.1.1.1.:.l.(                                                   ",
"                                                R.:X:X:XV.O.1.1.1.1.1.1.7.h.9                                                   ",
"                                                , :X:X^.O.1.1.1.1.1.1.:.v.P                                                     ",
"                                                  U.:XM.#.1.1.1.1.1.1.q.e.3                                                     ",
"                                                  0 G.q.1.1.1.1.1.1.1.p.S                                                       ",
"                                                    ) y.1.1.1.1.1.1.;.D.L.                                                      ",
"                                                  D v.:.1.1.1.1.1.1...!.:Xe                                                     ",
"                                                - e.e.1.1.1.1.1.1.%.9.=X:X/.                                                    ",
"                                                H v.:.1.1.1.1.1.1...~.:X:X:Xi                                                   ",
"                                              6 p.q.1.1.1.1.1.1.#.N.:X:X:X:X X                                                  ",
">X                                            T l.1.1.1.1.1.1.:.O.XX:X:X:X:X:XM                                               >X",
">X                                          a v.1.1.1.1.1.1.7...C.:X:X:X:X:X:X#X                                              >X",
">X                                          { h.1.1.1.1.1.1.:.;.OX:X:X:X:X:X:X:XZ                                             >X",
">X                                        j m.:.1.1.1.1.1.:.%.J.:X:X:X:X:X:X:X:X:X*                                           >X",
">X>X                                      *.p.1.1.1.1.1.1.e.~ I.:X:X:X:X:X:X:X:X:XY.                                        >X>X",
">X>X                                    D m.:.1.1.1.1.1.:.m.l   @X:X:X:X:X:X:X:X:X:Xq                                       >X>X",
">X>X>X                                = q.e.1.1.1.1.1.:.p.*.#   v :X:X:X:X:X:X:X:X:XQ.                                    >X>X>X",
">X>X>X                                G m.:.1.1.1.1.1.1.v.h       [.:X:X:X:X:X:X:X:X:Xu                                   >X>X>X",
">X>X>X                              4 p.q.1.1.1.1.1.1.h.'         y :X:X:X:X:X:X:X:X:X}.                                  >X>X>X",
">X>X>X>X                            U v.:.1.1.1.1.1.7.l.p           W.:X:X:X:X:X:X:X:X:Xn                               >X>X>X>X",
">X>X>X>X>X                        k S.h.p.p.p.h.p.p.S.Y             2 :X:X:X:X:X:X:X:X:X:X1                           >X>X>X>X>X",
">X>X>X>X>X                        J ] T E E E E E ! _ 4               C `.`.`.`.`.`.`.`.}.M                           >X>X>X>X>X",
">X>X>X>X>X>X                                                                              +                         >X>X>X>X>X>X",
">X>X>X>X>X>X>X                                                                                                    >X>X>X>X>X>X>X",
">X>X>X>X>X>X>X                                                                                                    >X>X>X>X>X>X>X",
">X>X>X>X>X>X>X>X                                                                                                >X>X>X>X>X>X>X>X",
">X>X>X>X>X>X>X>X>X                                                                                            >X>X>X>X>X>X>X>X>X",
">X>X>X>X>X>X>X>X>X>X                                                                                        >X>X>X>X>X>X>X>X>X>X",
">X>X>X>X>X>X>X>X>X>X>X                                                                                    >X>X>X>X>X>X>X>X>X>X>X",
">X>X>X>X>X>X>X>X>X>X>X>X>X                                                                            >X>X>X>X>X>X>X>X>X>X>X>X>X",
">X>X>X>X>X>X>X>X>X>X>X>X>X>X                                                                        >X>X>X>X>X>X>X>X>X>X>X>X>X>X",
">X>X>X>X>X>X>X>X>X>X>X>X>X>X>X>X                                                                >X>X>X>X>X>X>X>X>X>X>X>X>X>X>X>X",
">X>X>X>X>X>X>X>X>X>X>X>X>X>X>X>X>X                                                            >X>X>X>X>X>X>X>X>X>X>X>X>X>X>X>X>X",
">X>X>X>X>X>X>X>X>X>X>X>X>X>X>X>X>X>X>X>X                                                >X>X>X>X>X>X>X>X>X>X>X>X>X>X>X>X>X>X>X>X",
">X>X>X>X>X>X>X>X>X>X>X>X>X>X>X>X>X>X>X>X>X>X                                        >X>X>X>X>X>X>X>X>X>X>X>X>X>X>X>X>X>X>X>X>X>X",
">X>X>X>X>X>X>X>X>X>X>X>X>X>X>X>X>X>X>X>X>X>X>X>X>X>X                        >X>X>X>X>X>X>X>X>X>X>X>X>X>X>X>X>X>X>X>X>X>X>X>X>X>X"
};
